<svg xmlns="http://www.w3.org/2000/svg" viewBox="0 0 1024 1024">
  <!-- TSG letters -->
  <path fill="#69bfff" d="M186 633V255H89v-59h273v59h-95v378h-81zm446-312h-82c4-36-14-68-57-66-19-1-31 7-45 17-11 20-10 17-12 40 2 10 0 28 8 36l13 13c59 26 161 28 173 105l2 43-6 52c-25 76-123 86-191 68-32-11-58-28-75-55-10-18-10-44-9-65h82c-4 41 10 66 59 65 16-3 39-1 49-17 6-6 8-14 8-21l1-27-1-28c1-26-28-31-46-38-78-26-151-34-148-131-1-102 113-140 197-111 62 23 88 58 82 120h-2zm25-21c5-150 298-142 277 21h-83c0-19 1-44-16-55a76 76 0 0 0-79 0c-12 8-16 19-16 34v230c0 15 4 27 16 34 25 13 54 13 79 0 10-7 16-19 16-34v-82h-65v-55h148c-3 36 10 156-13 185-57 93-262 77-262-48"/>
  <!-- Sine waves (left half) -->
  <path fill="none" stroke="#69bfff" stroke-width="9.5" stroke-linecap="round" stroke-miterlimit="7.6" d="M91 701h53c26 0 40 86 53 86s25-86 51-86h54c26 0 39 86 53 86 13 0 24-86 51-86h53c27 0 40 86 53 86 14 0 25-86 52-86h53m0 171h-53c-27 0-40-85-52-85-13 0-26 85-53 85h-53c-27 0-38-85-51-85-14 0-27 85-53 85h-54c-24 0-38-85-51-85s-27 85-53 85H91"/>
  <!-- Sine waves (right half) -->
  <path fill="none" stroke="#69bfff" stroke-width="9.5" stroke-linecap="round" stroke-miterlimit="7.6" d="M406 701h53c27 0 40 86 53 86 14 0 25-86 52-86h53c27 0 40 86 53 86s25-86 51-86h54c26 0 40 86 51 86s27-86 53-86h53m0 171h-53c-26 0-40-85-53-85s-25 85-51 85h-54c-26 0-39-85-51-85-11 0-26 85-53 85h-53c-27 0-40-85-52-85-13 0-26 85-53 85h-53"/>
</svg>
